<svg width="96" height="77" viewBox="0 0 96 77" fill="none" xmlns="http://www.w3.org/2000/svg">
<path d="M47.8807 76.7623C50.5313 76.7623 52.6801 74.6136 52.6801 71.963C52.6801 69.3123 50.5313 67.1636 47.8807 67.1636C45.2301 67.1636 43.0813 69.3123 43.0813 71.963C43.0813 74.6136 45.2301 76.7623 47.8807 76.7623Z" fill="#D9B77B"/>
<path d="M47.8805 47.966C41.6689 47.9658 35.6991 50.3744 31.2267 54.6851C30.3102 55.5698 29.7827 56.7822 29.7602 58.0558C29.7377 59.3294 30.2221 60.5598 31.1067 61.4762C31.9913 62.3927 33.2038 62.9202 34.4774 62.9427C35.751 62.9652 36.9814 62.4809 37.8978 61.5962C40.6234 59.1005 44.185 57.7162 47.8805 57.7162C51.5761 57.7162 55.1377 59.1005 57.8633 61.5962C58.7797 62.4809 60.0101 62.9652 61.2837 62.9427C62.5573 62.9202 63.7697 62.3927 64.6544 61.4762C65.539 60.5598 66.0234 59.3294 66.0009 58.0558C65.9784 56.7822 65.4509 55.5698 64.5344 54.6851C60.062 50.3744 54.0922 47.9658 47.8805 47.966ZM47.8805 23.9691C42.0839 23.9729 36.3473 25.1434 31.0125 27.4109C25.6778 29.6783 20.854 32.9964 16.8285 37.1674C16.3905 37.6306 16.048 38.1756 15.8206 38.7712C15.5932 39.3668 15.4853 40.0014 15.5031 40.6387C15.5209 41.276 15.6641 41.9035 15.9245 42.4855C16.1848 43.0675 16.5573 43.5924 17.0205 44.0305C17.9561 44.9151 19.2047 45.3919 20.4918 45.3559C21.1291 45.3381 21.7567 45.1949 22.3386 44.9345C22.9206 44.6742 23.4456 44.3018 23.8836 43.8385C27.0176 40.587 30.7748 38.0008 34.9309 36.2343C39.087 34.4678 43.5566 33.5574 48.0725 33.5574C52.5884 33.5574 57.058 34.4678 61.2141 36.2343C65.3702 38.0008 69.1275 40.587 72.2614 43.8385C72.7059 44.292 73.236 44.6528 73.8209 44.8999C74.4058 45.1471 75.034 45.2757 75.669 45.2783C76.6069 45.2748 77.5232 44.9965 78.3046 44.4778C79.0861 43.9592 79.6985 43.2229 80.0661 42.3601C80.4337 41.4972 80.5405 40.5455 80.3731 39.6227C80.2058 38.6998 79.7717 37.8462 79.1245 37.1674C75.0767 32.9731 70.2217 29.6415 64.8522 27.3733C59.4826 25.105 53.7095 23.947 47.8805 23.9691Z" fill="#D9B77B"/>
<path d="M94.5309 18.8338C82.0065 6.75168 65.283 0 47.8808 0C30.4786 0 13.7552 6.75168 1.23083 18.8338C0.420876 19.7344 -0.0185848 20.908 0.000602847 22.1191C0.0197905 23.3302 0.496208 24.4893 1.33429 25.3638C2.17236 26.2383 3.31012 26.7636 4.51932 26.8343C5.72851 26.905 6.91972 26.5158 7.85398 25.7449C18.5931 15.3644 32.9449 9.56193 47.8808 9.56193C62.8168 9.56193 77.1686 15.3644 87.9077 25.7449C88.7974 26.6024 89.9836 27.0838 91.2193 27.0887C91.8658 27.0863 92.5051 26.9532 93.0989 26.6975C93.6927 26.4419 94.2288 26.0689 94.6748 25.6009C95.5499 24.6828 96.0259 23.4557 95.9989 22.1876C95.9719 20.9196 95.4441 19.7138 94.5309 18.8338Z" fill="#D9B77B"/>
</svg>
