<svg width="96" height="96" viewBox="0 0 96 96" fill="none" xmlns="http://www.w3.org/2000/svg">
<path d="M86.1771 48.0147H86.0752L78.0116 29.8709C77.2583 28.179 76.0309 26.7417 74.4779 25.7328C72.9249 24.7238 71.1128 24.1864 69.2609 24.1855H26.4914C24.6396 24.1865 22.8277 24.724 21.2748 25.733C19.722 26.7419 18.4947 28.1791 17.7414 29.8709L9.67709 48.0147H9.57515C7.88272 48.0166 6.26016 48.6898 5.06343 49.8865C3.86671 51.0833 3.19355 52.7058 3.19165 54.3982V76.7405C3.19355 78.4329 3.86671 80.0555 5.06343 81.2522C6.26016 82.4489 7.88272 83.1221 9.57515 83.124V91.2123C9.57663 92.4816 10.0815 93.6985 10.979 94.596C11.8766 95.4935 13.0935 95.9984 14.3628 95.9999H25.5339C26.8032 95.9984 28.0201 95.4935 28.9176 94.596C29.8152 93.6985 30.32 92.4816 30.3215 91.2123V83.124H65.4308V91.2123C65.4322 92.4816 65.9371 93.6985 66.8347 94.596C67.7322 95.4935 68.9491 95.9984 70.2184 95.9999H81.3895C82.6588 95.9984 83.8757 95.4935 84.7732 94.596C85.6708 93.6985 86.1757 92.4816 86.1771 91.2123V83.124C87.8696 83.1221 89.4921 82.4489 90.6889 81.2522C91.8856 80.0555 92.5587 78.4329 92.5606 76.7405V54.3982C92.5587 52.7058 91.8856 51.0833 90.6889 49.8865C89.4921 48.6898 87.8696 48.0166 86.1771 48.0147ZM23.574 32.4641C23.8251 31.9001 24.2343 31.4209 24.7521 31.0846C25.2698 30.7483 25.874 30.5692 26.4914 30.569H69.2609C69.8781 30.5694 70.4821 30.7485 70.9997 31.0848C71.5173 31.4212 71.9264 31.9002 72.1775 32.4641L79.0889 48.0145H16.6626L23.574 32.4641ZM23.938 89.6164H15.9586V83.124H23.938V89.6164ZM79.7936 89.6164H71.8143V83.124H79.7936V89.6164ZM86.1771 76.7405H9.57515V54.3982H86.1771V76.7405Z" fill="#D9B77B"/>
<path d="M15.9587 62.4863H31.9175V68.8698H15.9587V62.4863Z" fill="#D9B77B"/>
<path d="M63.835 62.4863H79.7937V68.8698H63.835V62.4863Z" fill="#D9B77B"/>
<path d="M47.8762 0L0 19.2229V26.1017L47.8762 6.87902L95.7525 26.1017V19.2229L47.8762 0Z" fill="#D9B77B"/>
</svg>
