<svg width="96" height="90" viewBox="0 0 96 90" fill="none" xmlns="http://www.w3.org/2000/svg">
<path fill-rule="evenodd" clip-rule="evenodd" d="M12.8333 53.8044C7.49419 53.8044 3.19293 51.7767 1.02731 50.061C0.745006 49.8411 0.51072 49.5657 0.33888 49.2518C0.167039 48.9379 0.0612826 48.5922 0.0281242 48.2359C-0.00503417 47.8796 0.0351078 47.5202 0.146077 47.18C0.257047 46.8398 0.436494 46.5259 0.673366 46.2577C1.16766 45.7112 1.84984 45.3713 2.58374 45.3057C3.31765 45.2401 4.0493 45.4536 4.63268 45.9037C4.95062 46.1497 12.1914 51.5788 21.8497 45.7118C34.7295 37.8651 48.809 45.3338 49.4029 45.6458C49.5109 45.6998 61.0409 51.7227 71.4551 45.6878C85.0667 37.7691 94.6531 45.6218 95.049 45.9697C95.3244 46.197 95.5504 46.4783 95.7129 46.7962C95.8755 47.1141 95.9713 47.4619 95.9943 47.8182C96.0173 48.1745 95.9672 48.5318 95.8469 48.868C95.7266 49.2042 95.5388 49.5122 95.295 49.7731C94.7849 50.3128 94.0881 50.6376 93.3467 50.681C92.6054 50.7245 91.8754 50.4834 91.3057 50.007C91.0597 49.7971 84.3829 44.494 74.3886 50.295C61.1129 57.9976 47.2133 50.6549 46.6194 50.343C46.4994 50.271 34.8794 44.158 24.8732 50.265C20.6079 52.8685 16.4746 53.8044 12.8333 53.8044Z" fill="#D9B77B"/>
<path fill-rule="evenodd" clip-rule="evenodd" d="M12.875 71.8751C5.98818 71.8751 1.41697 68.4797 1.13502 68.2517C0.533609 67.8014 0.135699 67.1307 0.0288222 66.3871C-0.0780551 65.6434 0.114855 64.8878 0.565115 64.2864C1.01537 63.685 1.6861 63.2871 2.42974 63.1802C3.17338 63.0733 3.92902 63.2662 4.53043 63.7165C4.87237 63.9684 12.2031 69.2295 21.9454 63.5305C34.7352 56.0558 48.7128 63.1586 49.3007 63.4645C49.4087 63.5185 61.0466 69.3675 71.5508 63.5065C85.0725 55.9598 94.5448 63.4525 94.9468 63.7765C95.5298 64.252 95.9016 64.9384 95.9813 65.6865C96.0611 66.4347 95.8424 67.184 95.3727 67.7718C95.1407 68.0615 94.8538 68.3025 94.5285 68.4811C94.2031 68.6597 93.8457 68.7723 93.4767 68.8124C93.1078 68.8525 92.7345 68.8194 92.3784 68.715C92.0222 68.6105 91.6902 68.4368 91.4014 68.2037C91.1434 67.9997 84.3826 62.8526 74.2863 68.4737C61.1186 75.8224 47.303 68.8216 46.7091 68.5157C46.6011 68.4617 34.8732 62.5287 24.7829 68.4497C20.3977 71.0112 16.3424 71.8751 12.875 71.8751Z" fill="#D9B77B"/>
<path fill-rule="evenodd" clip-rule="evenodd" d="M61.1188 89.8226C56.0797 89.792 51.1164 88.5928 46.6193 86.3192C46.4994 86.2592 34.8794 80.0983 24.8851 86.2532C14.3089 92.7441 4.6506 88.9647 1.02722 86.0492C0.744038 85.8266 0.509197 85.5485 0.337035 85.2321C0.164873 84.9156 0.0590008 84.5674 0.0258793 84.2087C-0.00724218 83.85 0.033082 83.4883 0.144391 83.1456C0.2557 82.803 0.435659 82.4867 0.673285 82.2159C1.16288 81.6619 1.84608 81.3165 2.58248 81.2507C3.31887 81.1848 4.05251 81.4036 4.6326 81.862C4.95054 82.1079 12.1913 87.585 21.8496 81.664C34.7294 73.7454 48.809 81.2741 49.4029 81.598C49.5228 81.652 61.0468 87.7289 71.455 81.64C85.0667 73.6554 94.653 81.586 95.0489 81.916C95.3248 82.1475 95.5509 82.4327 95.7134 82.7541C95.8759 83.0755 95.9716 83.4266 95.9946 83.786C96.0176 84.1455 95.9674 84.5058 95.8472 84.8453C95.7269 85.1849 95.539 85.4965 95.2949 85.7613C94.7856 86.3019 94.0892 86.6278 93.3478 86.6724C92.6065 86.7169 91.876 86.4769 91.3056 86.0013C91.0596 85.7793 84.3828 80.4462 74.3885 86.2832C70.365 88.6371 65.7802 89.86 61.1188 89.8226Z" fill="#D9B77B"/>
<path fill-rule="evenodd" clip-rule="evenodd" d="M55.6777 23.7498H21.8136C20.1579 23.7498 18.8141 22.49 18.8141 20.9363C18.8141 19.3826 20.1579 18.1228 21.8136 18.1228H55.6777C57.3334 18.1228 58.6772 19.3826 58.6772 20.9363C58.6772 22.49 57.3334 23.7498 55.6777 23.7498Z" fill="#D9B77B"/>
<path fill-rule="evenodd" clip-rule="evenodd" d="M55.6777 35.9145H21.8136C21.0181 35.9145 20.2551 35.5985 19.6926 35.036C19.1301 34.4734 18.8141 33.7105 18.8141 32.915C18.8141 32.1195 19.1301 31.3566 19.6926 30.7941C20.2551 30.2315 21.0181 29.9155 21.8136 29.9155H55.6777C56.4732 29.9155 57.2361 30.2315 57.7987 30.7941C58.3612 31.3566 58.6772 32.1195 58.6772 32.915C58.6772 33.7105 58.3612 34.4734 57.7987 35.036C57.2361 35.5985 56.4732 35.9145 55.6777 35.9145Z" fill="#D9B77B"/>
<path fill-rule="evenodd" clip-rule="evenodd" d="M20.7336 52.162C19.0779 52.162 18.01 50.8182 18.01 49.1625V7.60769C17.8121 7.31974 15.7364 5.54405 12.683 5.54405H11.1772C8.11776 5.54405 6.31807 7.31974 6.08411 7.78166C6.08423 8.16988 6.00666 8.55419 5.85596 8.91196C5.70526 9.26973 5.48449 9.59373 5.20665 9.86486C4.92881 10.136 4.59951 10.3488 4.23816 10.4907C3.87682 10.6326 3.49072 10.7008 3.10263 10.6912C2.29853 10.6723 1.53421 10.3375 0.975093 9.7593C0.415975 9.18109 0.107039 8.40597 0.115146 7.60169C0.115146 3.37842 4.87232 0.198975 11.1772 0.198975H12.683C18.9819 0.198975 23.7331 3.37842 23.7331 7.60169V49.1565C23.7338 49.5509 23.6568 49.9416 23.5065 50.3062C23.3561 50.6708 23.1353 51.0022 22.8566 51.2813C22.578 51.5605 22.2471 51.782 21.8828 51.9331C21.5185 52.0842 21.128 52.162 20.7336 52.162Z" fill="#D9B77B"/>
<path fill-rule="evenodd" clip-rule="evenodd" d="M56.8173 52.2869C56.0218 52.2869 55.2589 51.9709 54.6964 51.4084C54.1339 50.8459 53.8178 50.083 53.8178 49.2875V7.40872C53.6199 7.12077 52.2821 5.54304 49.2226 5.54304H47.7109C44.6574 5.54304 42.3958 7.12077 42.1619 7.58269C42.162 7.9709 42.0844 8.35521 41.9337 8.71299C41.783 9.07076 41.5622 9.39475 41.2844 9.66589C41.0065 9.93702 40.6773 10.1498 40.3159 10.2917C39.9546 10.4336 39.5685 10.5018 39.1804 10.4922C38.3773 10.4717 37.6145 10.1363 37.0567 9.55826C36.4989 8.98022 36.1908 8.20598 36.1989 7.40272C36.1989 3.17945 40.9501 0 47.255 0H48.7607C55.0656 0 59.8168 3.17945 59.8168 7.40272V49.2815C59.8176 49.6759 59.7406 50.0666 59.5902 50.4312C59.4398 50.7958 59.219 51.1271 58.9404 51.4063C58.6618 51.6855 58.3309 51.9069 57.9666 52.0581C57.6023 52.2092 57.2117 52.2869 56.8173 52.2869Z" fill="#D9B77B"/>
</svg>
