<svg width="102" height="87" viewBox="0 0 102 87" fill="none" xmlns="http://www.w3.org/2000/svg">
<path d="M73.3097 3C58.366 3 51 17.6894 51 17.6894C51 17.6894 43.6341 3 28.6904 3C16.5458 3 6.92866 13.1311 6.80436 25.22C6.55115 50.3137 26.7684 68.159 48.9284 83.156C49.5393 83.5705 50.2611 83.7921 51 83.7921C51.739 83.7921 52.4608 83.5705 53.0717 83.156C75.2294 68.159 95.4466 50.3137 95.1957 25.22C95.0714 13.1311 85.4543 3 73.3097 3V3Z" stroke="#D9B77B" stroke-width="5" stroke-linecap="round" stroke-linejoin="round"/>
<path d="M3 43.3012H28.8462L39.9231 21.0596L51 58.1289L62.0769 35.8873L69.4615 50.715H99" stroke="#D9B77B" stroke-width="5" stroke-linecap="round" stroke-linejoin="round"/>
</svg>
