<svg width="102" height="102" viewBox="0 0 102 102" fill="none" xmlns="http://www.w3.org/2000/svg">
<path d="M65.3283 85.3882C65.3283 92.9067 60.9022 99.0001 53.3254 99.0001H25.0327C17.4559 99.0001 13.0298 92.9067 13.0298 85.3882" stroke="#D9B77B" stroke-width="5" stroke-miterlimit="10" stroke-linecap="round"/>
<path d="M67.8188 68.1938C71.5864 68.1938 74.6418 72.0432 74.6418 76.7909C74.6418 81.5386 71.5864 85.3879 67.8188 85.3879H9.82303C6.05544 85.3879 3 81.5386 3 76.7909C3 72.0432 6.05544 68.1938 9.82303 68.1938" stroke="#D9B77B" stroke-width="5" stroke-miterlimit="10" stroke-linecap="round"/>
<path d="M69.5245 68.2597H34.4094C33.9576 68.2599 33.5243 68.4369 33.2047 68.7519L27.484 74.3949C27.4048 74.4732 27.3107 74.5352 27.2072 74.5775C27.1037 74.6199 26.9927 74.6417 26.8806 74.6417C26.7685 74.6417 26.6575 74.6199 26.554 74.5775C26.4505 74.5352 26.3564 74.4732 26.2772 74.3949L20.5565 68.7519C20.2369 68.4369 19.8036 68.2599 19.3518 68.2597H8.11727C6.76009 68.2597 5.45849 67.7279 4.49881 66.7812C3.53914 65.8346 3 64.5507 3 63.2119V63.2119C3 61.8731 3.53914 60.5892 4.49881 59.6425C5.45849 58.6959 6.76009 58.1641 8.11727 58.1641H69.5245C70.8817 58.1641 72.1833 58.6959 73.143 59.6425C74.1026 60.5892 74.6418 61.8731 74.6418 63.2119C74.6418 64.5507 74.1026 65.8346 73.143 66.7812C72.1833 67.7279 70.8817 68.2597 69.5245 68.2597Z" stroke="#D9B77B" stroke-width="5" stroke-miterlimit="10" stroke-linecap="round"/>
<path d="M10.1641 55.2986V55.2517C10.1641 43.5246 19.7646 37.3882 31.4986 37.3882H46.8594C58.5934 37.3882 68.1939 43.5716 68.1939 55.2986V55.2517" stroke="#D9B77B" stroke-width="5" stroke-miterlimit="10" stroke-linecap="round"/>
<path d="M47.418 20.1941L49.5672 33.806" stroke="#D9B77B" stroke-width="5" stroke-miterlimit="10" stroke-linecap="round"/>
<path d="M51 99.0001H80.893C82.6254 99 84.2936 98.3465 85.5635 97.1706C86.8333 95.9947 87.6109 94.3832 87.7403 92.6592L95.4179 20.1941" stroke="#D9B77B" stroke-width="5" stroke-miterlimit="10" stroke-linecap="round"/>
<path d="M74.6418 20.194L78.0988 6.43881L88.2538 3" stroke="#D9B77B" stroke-width="5" stroke-linecap="round" stroke-linejoin="round"/>
<path d="M43.8359 20.1941H99.0001" stroke="#D9B77B" stroke-width="5" stroke-miterlimit="10" stroke-linecap="round"/>
</svg>
