<svg width="71" height="96" viewBox="0 0 71 96" fill="none" xmlns="http://www.w3.org/2000/svg">
<mask id="path-1-inside-1" fill="white">
<path d="M8.09766 32.2003C9.59686 44.9395 21.1569 56.1059 35.2097 56.1059C50.2817 56.1059 62.4977 43.2675 62.4977 29.4131C62.4977 29.2947 62.4897 29.1795 62.4881 29.0659C46.9393 26.9555 27.1297 38.2531 8.09766 32.2003Z"/>
</mask>
<path d="M62.4881 29.0659L67.4876 28.9955L67.4269 24.6904L63.1605 24.1114L62.4881 29.0659ZM3.13192 32.7847C4.91718 47.9547 18.5346 61.1059 35.2097 61.1059V51.1059C23.7791 51.1059 14.2765 41.9244 13.0634 31.6159L3.13192 32.7847ZM35.2097 61.1059C53.0463 61.1059 67.4977 46.0257 67.4977 29.4131H57.4977C57.4977 40.5094 47.517 51.1059 35.2097 51.1059V61.1059ZM67.4977 29.4131C67.4977 29.2504 67.4922 29.109 67.4898 29.0475C67.4882 29.0057 67.4879 28.9966 67.4873 28.9812C67.487 28.9711 67.4873 28.9785 67.4876 28.9955L57.4886 29.1364C57.4896 29.2101 57.4915 29.2746 57.4931 29.3217C57.4946 29.3636 57.4965 29.412 57.4971 29.4279C57.4991 29.4821 57.4977 29.4575 57.4977 29.4131H67.4977ZM63.1605 24.1114C58.5817 23.4899 53.8828 23.8768 49.3461 24.5747C44.8809 25.2616 40.0685 26.343 35.6444 27.2035C26.4362 28.9945 17.8264 30.0476 9.61303 27.4355L6.58228 36.9652C17.4009 40.4058 28.2119 38.8365 37.5537 37.0196C42.4046 36.076 46.6495 35.1071 50.8665 34.4584C55.0119 33.8207 58.6201 33.5868 61.8156 34.0205L63.1605 24.1114Z" fill="#D9B77B" mask="url(#path-1-inside-1)"/>
<path d="M70.4 29.512C70.4 11.2672 61.2672 0.0032 61.2656 0H9.1328C9.1328 0 0 11.2832 0 29.512C0 46.8368 14.8096 62.9296 33.432 63.8944C33.2144 73.9552 32.3584 84.432 29.8944 88.0608C26.424 93.1744 14.2608 90.5472 14.2608 96H56.144C56.144 90.5456 43.976 93.1744 40.5056 88.0608C38.0416 84.432 37.1856 73.9568 36.968 63.8944C55.5856 62.9312 70.4 46.8368 70.4 29.512ZM35.2 59.6064C19.5296 59.6064 6.64 47.1568 4.9696 32.9536C4.84421 31.9231 4.77956 30.8861 4.776 29.848C4.776 14.088 12.6688 4.3376 12.6688 4.3376H57.7296C57.7312 4.3424 65.4832 13.92 65.6128 29.4608C65.6144 29.5888 65.624 29.7152 65.624 29.848C65.624 45.2928 52.0032 59.6064 35.2 59.6064Z" fill="#D9B77B"/>
</svg>
