<?xml version="1.0" encoding="utf-8"?>
<!-- Generator: Adobe Illustrator 19.0.0, SVG Export Plug-In . SVG Version: 6.00 Build 0)  -->
<svg version="1.1" id="Layer_1" xmlns="http://www.w3.org/2000/svg" xmlns:xlink="http://www.w3.org/1999/xlink" x="0px" y="0px"
	 viewBox="0 0 500 500" style="enable-background:new 0 0 500 500;" xml:space="preserve">
<style type="text/css">
	.st0{fill:none;stroke:#D9B77B;stroke-width:20.6054;stroke-miterlimit:10;}
</style>
<path id="XMLID_1_" class="st0" d="M359.3,442c-32.8,1.8-74.4-28.9-76.7-70.8c-1.8-33.3-11.5-64.5-32.8-91.3
	c-26.7-33.6-60.5-54.3-103.6-59.6c-12-1.5-24.2-3.3-35.6-7c-29.1-9.5-50.4-39.5-51.7-70.1c-0.9-20.1,3-38.4,15.6-54.8
	c21.4-27.9,60-38.3,92.8-24.5c34,14.3,49.7,40.8,52.4,76.7c5,64.9,50.5,120.2,118.9,135.4c10.3,2.3,20.7,4.2,31.1,5.4
	c58.1,6.7,89.5,72.9,60.2,121.7C414.6,428.4,391.2,442.7,359.3,442z M441.1,137.2c-1.8-46-34-79.6-81.6-79.4
	C311,58,280.9,98.2,280.2,137c-0.7,43.6,35.9,84.1,80.2,81C401.9,222,442.9,181.8,441.1,137.2z M139.3,442.2
	c43.1-0.7,80.2-33.8,79.9-81c-0.4-50.4-40.5-79.6-79.7-80.1c-45.1-0.6-83,39.3-80.5,81.4C56.7,403.7,93.9,442.9,139.3,442.2z"/>
</svg>
