<?xml version="1.0" encoding="utf-8"?>
<!-- Generator: Adobe Illustrator 19.0.0, SVG Export Plug-In . SVG Version: 6.00 Build 0)  -->
<svg version="1.1" id="Layer_1" xmlns="http://www.w3.org/2000/svg" xmlns:xlink="http://www.w3.org/1999/xlink" x="0px" y="0px"
	 viewBox="95 120 690.1 261" style="enable-background:new 95 120 690.1 261;" xml:space="preserve">
<style type="text/css">
	.st0{fill:none;stroke:#D9B77B;stroke-width:7.5387;stroke-miterlimit:10;}
	.st1{fill:#D9B77B;}
</style>
<g id="XMLID_84_">
	<path id="XMLID_1_" class="st0" d="M266.9,320.7c-12,0.7-27.2-10.6-28.1-25.9c-0.7-12.2-4.2-23.6-12-33.4
		c-9.8-12.3-22.1-19.9-37.9-21.8c-4.4-0.5-8.9-1.2-13-2.6c-10.7-3.5-18.4-14.5-18.9-25.7c-0.3-7.4,1.1-14.1,5.7-20.1
		c7.8-10.2,22-14,33.9-9c12.4,5.2,18.2,14.9,19.2,28c1.8,23.7,18.5,44,43.5,49.5c3.8,0.8,7.6,1.5,11.4,2c21.2,2.5,32.7,26.7,22,44.5
		C287.2,315.8,278.6,321,266.9,320.7z M296.8,209.2c-0.7-16.8-12.4-29.1-29.9-29c-17.7,0.1-28.7,14.8-29,29
		c-0.3,16,13.1,30.8,29.3,29.6C282.5,240.3,297.5,225.5,296.8,209.2z M186.4,320.8c15.8-0.2,29.3-12.4,29.2-29.7
		c-0.1-18.4-14.8-29.1-29.2-29.3c-16.4-0.1-30.3,14.5-29.4,29.9C156.2,306.7,169.8,321.1,186.4,320.8z"/>
	<g id="XMLID_70_">
		<path id="XMLID_85_" class="st1" d="M329.1,190.6h32.2v4.1h-13.6v45h-4.9v-45h-13.7L329.1,190.6L329.1,190.6z"/>
		<path id="XMLID_87_" class="st1" d="M407.6,216.7H381v23h-4.9v-49.1h4.9v22h26.6v-22h4.9v49.1h-4.9V216.7z"/>
		<path id="XMLID_89_" class="st1" d="M456.4,194.6h-20.7v18.3h18.6v4.1h-18.6v18.6h20.7v4.1h-25.6v-49.2h25.6V194.6z"/>
		<path id="XMLID_91_" class="st1" d="M372.3,261.1V310h-8l-24.1-36.4V310h-8v-48.9h8l24.1,36.4v-36.4H372.3z"/>
		<path id="XMLID_93_" class="st1" d="M416.8,267.7h-19V282h16.9v6.5h-16.9v15h19v6.5h-27v-48.9h27V267.7z"/>
		<path id="XMLID_95_" class="st1" d="M456,310.5c-13.8,0-24.9-10.3-24.9-25c0-14.6,11.2-24.9,24.9-24.9c13.9,0,24.9,10.3,24.9,24.9
			C480.9,300.2,469.9,310.5,456,310.5z M456,303.6c9.7,0,16.7-7,16.7-18s-7-17.9-16.7-17.9s-16.7,6.9-16.7,17.9
			C439.2,296.5,446.3,303.6,456,303.6z"/>
		<path id="XMLID_98_" class="st1" d="M529.4,261.2h8.4L519.5,310h-9.3l-18.4-48.8h8.6l14.5,40.6L529.4,261.2z"/>
		<path id="XMLID_100_" class="st1" d="M578.5,267.7h-19V282h16.9v6.5h-16.9v15h19v6.5h-27v-48.9h27V267.7z"/>
		<path id="XMLID_102_" class="st1" d="M612.2,261.2c11.6,0,17.3,6.7,17.3,14.6c0,5.8-3.1,11.9-11.3,14l12.1,20.2h-9.5l-11.2-19.5
			h-6.1V310h-8v-48.8H612.2z M612.2,267.7h-8.8v16.4h8.8c6.3,0,9.1-3.4,9.1-8.3C621.3,270.9,618.5,267.7,612.2,267.7z"/>
		<path id="XMLID_105_" class="st1" d="M662.8,310.5c-9.8,0-17.3-5.3-17.3-14h8.6c0.4,4,3.2,7.2,8.7,7.2c5.6,0,8.8-3,8.8-7.2
			c0-11.8-25.9-4.1-25.9-22.1c0-8.6,6.8-13.9,16.8-13.9c9.3,0,15.9,4.9,16.6,13.3h-8.8c-0.3-3.3-3.2-6.3-8.2-6.5
			c-4.6-0.1-8.2,2.1-8.2,6.8c0,11,25.8,4.1,25.8,22C679.7,303.5,673.7,310.5,662.8,310.5z"/>
		<path id="XMLID_107_" class="st1" d="M723.2,267.7h-19V282h16.9v6.5h-16.9v15h19v6.5h-27v-48.9h27V267.7z"/>
	</g>
</g>
</svg>
